<svg width="24" height="24" viewBox="0 0 24 24" fill="none" xmlns="http://www.w3.org/2000/svg">
    <path fill-rule="evenodd" clip-rule="evenodd" d="M10.8629 18.8109C9.57292 19.5472 8.30921 20.2389 7.07184 20.8803C6.37154 21.2429 5.55539 20.7409 5.50274 19.9209C5.40796 18.465 5.33951 16.9589 5.29739 15.4082C5.2658 14.2926 5.25 13.1547 5.25 12C5.25 10.8453 5.2658 9.71298 5.29739 8.59178C5.33951 7.04107 5.40796 5.53498 5.50274 4.07909C5.55539 3.25911 6.37154 2.75708 7.07184 3.11966C8.30921 3.76114 9.57818 4.45282 10.8629 5.18913C11.7897 5.71905 12.7269 6.27129 13.6694 6.85141C14.6119 7.43153 15.5334 8.01166 16.4285 8.59736C17.6764 9.41176 18.8717 10.2262 20.0143 11.0406C20.6619 11.498 20.6619 12.502 20.0143 12.9594C18.8717 13.7738 17.6711 14.5938 16.4285 15.4026C15.5334 15.9883 14.6119 16.5741 13.6694 17.1486C12.7269 17.7287 11.7897 18.2754 10.8629 18.8109Z" fill="#1F1F1F"/>
</svg>
