<?xml version="1.0" encoding="utf-8"?>
<!-- Generator: Adobe Illustrator 27.1.1, SVG Export Plug-In . SVG Version: 6.00 Build 0)  -->
<svg version="1.1" xmlns="http://www.w3.org/2000/svg" xmlns:xlink="http://www.w3.org/1999/xlink" x="0px" y="0px"
	 viewBox="0 0 30 24" style="enable-background:new 0 0 30 24;" xml:space="preserve">
<style type="text/css">
	.st0{display:none;}
	.st1{display:inline;fill:#3C75FF;}
	.st2{fill:#3C75FF;}
	.st3{fill-rule:evenodd;clip-rule:evenodd;fill:#FFFFFF;}
</style>
<g id="Layer_2" class="st0">
	<rect class="st1" width="30" height="24"/>
</g>
<g id="Layer_1">
	<path class="st2" d="M21.5,2.2c3.3,0.5,5.8,3,6.3,6.3C27.9,9.6,28,10.8,28,12s-0.1,2.4-0.2,3.5l0,0c-0.5,3.3-3,5.8-6.3,6.3l0,0
		c-0.9,0.1-1.9,0.2-3,0.2h-7c-1,0-2-0.1-3-0.2l0,0c-3.3-0.5-5.8-3-6.3-6.3C2.1,14.4,2,13.2,2,12s0.1-2.4,0.2-3.5l0,0
		c0.5-3.3,3-5.8,6.3-6.3c1-0.1,1.9-0.2,2.9-0.2c0.3,0,6.7,0,7,0C19.5,2,20.6,2.1,21.5,2.2z"/>
	<path class="st3" d="M7,12.7V8.5c0-0.4,0.1-0.7,0.4-0.9c0.2-0.2,0.5-0.3,0.8-0.3c0.3,0,0.6,0.1,0.8,0.3c0.2,0.2,0.4,0.5,0.4,0.9
		v4.3c0,0.8,0.2,1.2,0.4,1.4s0.6,0.3,1,0.3s0.8-0.1,1-0.3s0.4-0.6,0.4-1.4V8.5c0-0.4,0.1-0.7,0.4-0.9c0.2-0.2,0.5-0.3,0.8-0.3
		s0.6,0.1,0.8,0.3c0.2,0.2,0.4,0.5,0.4,0.9v4.2c0,1.6-0.4,2.6-1.2,3.2c-0.7,0.6-1.7,0.8-2.7,0.8S8.8,16.5,8,15.9
		C7.4,15.3,7,14.3,7,12.7z"/>
	<path class="st3" d="M15.8,15.5v-7c0-0.4,0.1-0.7,0.4-0.9c0.2-0.2,0.5-0.3,0.8-0.3h2.6c1.2,0,2,0.4,2.6,1c0.6,0.6,0.8,1.5,0.8,2.3
		s-0.2,1.7-0.8,2.3c-0.6,0.6-1.4,1-2.6,1h-1.4v1.6c0,0.4-0.2,0.7-0.4,0.9c-0.2,0.2-0.5,0.3-0.8,0.3s-0.6-0.1-0.8-0.3
		C15.9,16.2,15.8,15.9,15.8,15.5z M18.2,11.7h1.3c0.4,0,0.7-0.2,0.8-0.3c0.1-0.2,0.2-0.5,0.2-0.8s-0.1-0.6-0.2-0.8s-0.4-0.3-0.8-0.3
		h-1.3V11.7z"/>
</g>
</svg>
