<svg width="20" height="20" viewBox="0 0 20 20" fill="none" xmlns="http://www.w3.org/2000/svg">
    <path fill-rule="evenodd" clip-rule="evenodd" d="M2.82172 7.65094L9.48842 2.66867C9.78933 2.44378 10.2107 2.44378 10.5116 2.66867L17.1782 7.65094C17.3812 7.80264 17.5 8.03589 17.5 8.28299V16.6993C17.5 17.1415 17.1269 17.5 16.6667 17.5H3.33333C2.8731 17.5 2.5 17.1415 2.5 16.6993V8.28299C2.5 8.03589 2.61872 7.80264 2.82172 7.65094ZM15.8333 8.7265V15.8333H10.8333V11.6667C10.8333 11.2064 10.4602 10.8333 10 10.8333C9.53976 10.8333 9.16667 11.2064 9.16667 11.6667L9.16667 15.8333H4.16667V8.72648L10 4.36702L15.8333 8.7265Z" fill="#1F1F1F"/>
</svg>
