<svg width="16" height="16" viewBox="0 0 16 16" fill="none" xmlns="http://www.w3.org/2000/svg">
    <path d="M9.43435 2C9.07731 2 8.78788 2.28943 8.78788 2.64646C8.78788 3.0035 9.07731 3.29293 9.43435 3.29293H11.7524L7.28025 7.76511C7.02779 8.01757 7.02779 8.42689 7.28025 8.67935C7.53271 8.93181 7.94203 8.93181 8.19449 8.67935L12.6667 4.20716V6.52525C12.6667 6.88229 12.9561 7.17172 13.3131 7.17172C13.6702 7.17172 13.9596 6.88229 13.9596 6.52525V2.64646C13.9596 2.28943 13.6702 2 13.3131 2H9.43435Z" fill="#999999"/>
    <path d="M3.61616 3.29293C3.43764 3.29293 3.29293 3.43765 3.29293 3.61616V12.3434C3.29293 12.522 3.43764 12.6667 3.61616 12.6667H12.3434C12.5219 12.6667 12.6667 12.522 12.6667 12.3434V9.91919C12.6667 9.56216 12.9561 9.27273 13.3131 9.27273C13.6702 9.27273 13.9596 9.56216 13.9596 9.91919V12.3434C13.9596 13.236 13.236 13.9596 12.3434 13.9596H3.61616C2.72358 13.9596 2 13.236 2 12.3434V3.61616C2 2.72358 2.72358 2 3.61616 2H6.0404C6.39744 2 6.68687 2.28943 6.68687 2.64646C6.68687 3.0035 6.39744 3.29293 6.0404 3.29293H3.61616Z" fill="#999999"/>
</svg>
