<svg width="20" height="20" viewBox="0 0 20 20" fill="none" xmlns="http://www.w3.org/2000/svg">
    <path fill-rule="evenodd" clip-rule="evenodd" d="M10 18.75C5.44858 18.75 1.7088 15.2749 1.28917 10.8333H1.25V9.16667H1.28917C1.7088 4.72506 5.44858 1.25 10 1.25C14.5514 1.25 18.2912 4.72506 18.7108 9.16667H18.75V10.8333H18.7108C18.2912 15.2749 14.5514 18.75 10 18.75ZM11.5 16.9242C14.4267 16.2932 16.6809 13.8537 17.0348 10.8333H13.7036C13.5095 13.0075 12.7494 15.0974 11.5 16.9242ZM8.49998 16.9242C5.57328 16.2932 3.31913 13.8537 2.96517 10.8333H6.29641C6.49046 13.0075 7.25064 15.0974 8.49998 16.9242ZM7.97075 10.8333C8.16671 12.7331 8.8626 14.5633 10 16.1616C11.1374 14.5633 11.8333 12.7331 12.0292 10.8333H7.97075ZM12.0292 9.16667H7.97075C8.16671 7.26695 8.8626 5.43665 10 3.83838C11.1374 5.43665 11.8333 7.26695 12.0292 9.16667ZM13.7036 9.16667H17.0348C16.6809 6.14632 14.4267 3.70683 11.5 3.0758C12.7494 4.9026 13.5095 6.99249 13.7036 9.16667ZM8.49998 3.0758C7.25064 4.9026 6.49046 6.99249 6.29641 9.16667H2.96517C3.31913 6.14632 5.57328 3.70683 8.49998 3.0758Z" fill="#1F1F1F"/>
</svg>
