<svg width="30" height="24" viewBox="0 0 30 24" fill="none" xmlns="http://www.w3.org/2000/svg">
<mask id="path-1-outside-1_5913_60053" maskUnits="userSpaceOnUse" x="1" y="1" width="28" height="22" fill="black">
<rect fill="white" x="1" y="1" width="28" height="22"/>
<path d="M21.4647 2.23761C24.7449 2.71976 27.2881 5.26092 27.7706 8.54024C27.9305 9.63226 28 10.7929 28 12C28 13.2123 27.9215 14.3714 27.7623 15.4591L27.7618 15.4625C27.2703 18.7375 24.7392 21.2798 21.457 21.7623L21.4552 21.7625C20.5134 21.8992 19.5245 21.9764 18.5 21.9954H11.5C10.4758 21.9764 9.47905 21.8992 8.54369 21.7624L8.54075 21.762C5.25506 21.2708 2.72047 18.7401 2.23783 15.4598C2.07858 14.3721 2 13.2123 2 12C2 10.7877 2.07849 9.62859 2.23774 8.54089L2.23823 8.53755C2.72982 5.26182 5.26235 2.71976 8.55267 2.23753C9.55018 2.09222 10.4125 2.01356 11.5 2.00161L18.5 2C19.5194 2.02432 20.5869 2.1092 21.4647 2.23761Z"/>
</mask>
<path d="M21.4647 2.23761C24.7449 2.71976 27.2881 5.26092 27.7706 8.54024C27.9305 9.63226 28 10.7929 28 12C28 13.2123 27.9215 14.3714 27.7623 15.4591L27.7618 15.4625C27.2703 18.7375 24.7392 21.2798 21.457 21.7623L21.4552 21.7625C20.5134 21.8992 19.5245 21.9764 18.5 21.9954H11.5C10.4758 21.9764 9.47905 21.8992 8.54369 21.7624L8.54075 21.762C5.25506 21.2708 2.72047 18.7401 2.23783 15.4598C2.07858 14.3721 2 13.2123 2 12C2 10.7877 2.07849 9.62859 2.23774 8.54089L2.23823 8.53755C2.72982 5.26182 5.26235 2.71976 8.55267 2.23753C9.55018 2.09222 10.4125 2.01356 11.5 2.00161L18.5 2C19.5194 2.02432 20.5869 2.1092 21.4647 2.23761Z" fill="#3C75FF"/>
<path d="M27.7706 8.54024L28.7601 8.39538L28.76 8.39468L27.7706 8.54024ZM21.4647 2.23761L21.6102 1.24824L21.6095 1.24814L21.4647 2.23761ZM27.7623 15.4591L28.7514 15.6058L28.7517 15.604L27.7623 15.4591ZM27.7618 15.4625L28.7507 15.6109L28.7509 15.6092L27.7618 15.4625ZM21.457 21.7623L21.6019 22.7517L21.6024 22.7517L21.457 21.7623ZM21.4552 21.7625L21.5988 22.7522L21.6002 22.752L21.4552 21.7625ZM8.54075 21.762L8.3929 22.751L8.39437 22.7512L8.54075 21.762ZM8.54369 21.7624L8.3973 22.7516L8.39896 22.7519L8.54369 21.7624ZM2.23783 15.4598L1.24838 15.6046L1.24848 15.6053L2.23783 15.4598ZM2.23774 8.54089L1.24829 8.39603L1.24829 8.39603L2.23774 8.54089ZM2.23823 8.53755L1.24929 8.38914L1.24878 8.39268L2.23823 8.53755ZM8.55267 2.23753L8.40851 1.24798L8.40766 1.2481L8.55267 2.23753ZM11.5 2.00161L11.4998 1.00155L11.489 1.00167L11.5 2.00161ZM18.5 2L18.5239 1.00028C18.5158 1.00009 18.5078 0.999998 18.4998 1L18.5 2ZM18.5 21.9954V22.9954C18.5062 22.9954 18.5123 22.9953 18.5185 22.9952L18.5 21.9954ZM11.5 21.9954L11.4815 22.9952C11.4877 22.9953 11.4938 22.9954 11.5 22.9954V21.9954ZM28.76 8.39468C28.2132 4.67828 25.3266 1.79453 21.6102 1.24824L21.3193 3.22698C24.1631 3.645 26.3631 5.84356 26.7813 8.6858L28.76 8.39468ZM29 12C29 10.7559 28.9284 9.54546 28.7601 8.39538L26.7812 8.6851C26.9325 9.71905 27 10.83 27 12H29ZM28.7517 15.604C28.9188 14.4628 29 13.2548 29 12H27C27 13.1697 26.9242 14.2801 26.7728 15.3142L28.7517 15.604ZM28.7509 15.6092L28.7514 15.6058L26.7731 15.3124L26.7726 15.3157L28.7509 15.6092ZM21.6024 22.7517C25.3233 22.2047 28.1943 19.3183 28.7507 15.6109L26.7728 15.314C26.3462 18.1567 24.1551 20.355 21.3115 20.7729L21.6024 22.7517ZM21.6002 22.752L21.6019 22.7517L21.312 20.7729L21.3103 20.7731L21.6002 22.752ZM8.39437 22.7512L8.3973 22.7516L8.69008 20.7732L8.68714 20.7727L8.39437 22.7512ZM1.24848 15.6053C1.79558 19.3238 4.67389 22.195 8.3929 22.751L8.6886 20.7729C5.83622 20.3465 3.64535 18.1564 3.22718 15.3142L1.24848 15.6053ZM1 12C1 13.2548 1.0813 14.4634 1.24838 15.6046L3.22729 15.3149C3.07587 14.2807 3 13.1697 3 12H1ZM1.24829 8.39603C1.0812 9.53724 1 10.7452 1 12H3C3 10.8303 3.07578 9.71994 3.22719 8.68576L1.24829 8.39603ZM1.24878 8.39268L1.24829 8.39603L3.22719 8.68576L3.22768 8.68242L1.24878 8.39268ZM8.40766 1.2481C4.67914 1.79455 1.80591 4.68016 1.2493 8.38914L3.22715 8.68596C3.65373 5.84347 5.84556 3.64497 8.69768 3.22696L8.40766 1.2481ZM11.489 1.00167C10.351 1.01418 9.4439 1.09714 8.40851 1.24798L8.69683 3.22709C9.65647 3.08729 10.4739 3.01295 11.511 3.00155L11.489 1.00167ZM21.6095 1.24814C20.6855 1.113 19.5772 1.02542 18.5239 1.00028L18.4761 2.99972C19.4617 3.02323 20.4882 3.10541 21.32 3.22708L21.6095 1.24814ZM18.4998 1L11.4998 1.00161L11.5002 3.00161L18.5002 3L18.4998 1ZM18.5185 22.9952C19.5809 22.9755 20.6118 22.8954 21.5988 22.7522L21.3116 20.7729C20.4149 20.903 19.468 20.9773 18.4815 20.9955L18.5185 22.9952ZM8.39896 22.7519C9.38072 22.8955 10.4199 22.9755 11.4815 22.9952L11.5185 20.9955C10.5316 20.9773 9.57737 20.9029 8.68842 20.7729L8.39896 22.7519ZM18.5 20.9954H11.5V22.9954H18.5V20.9954Z" fill="black" fill-opacity="0.4" mask="url(#path-1-outside-1_5913_60053)"/>
<path fill-rule="evenodd" clip-rule="evenodd" d="M7 12.6819V8.4655C7 8.07636 7.14021 7.77049 7.38272 7.56754C7.61616 7.37218 7.9111 7.2998 8.17984 7.2998C8.44804 7.2998 8.74669 7.37183 8.98498 7.56392C9.23359 7.76434 9.38452 8.0703 9.38452 8.4655V12.8059C9.38452 13.6013 9.58618 14.0048 9.8246 14.2181C10.0691 14.4369 10.4191 14.5172 10.85 14.5172C11.2809 14.5172 11.6309 14.4369 11.8754 14.2181C12.1138 14.0048 12.3155 13.6013 12.3155 12.8059V8.4655C12.3155 8.07636 12.4557 7.77049 12.6982 7.56754C12.9316 7.37218 13.2266 7.2998 13.4953 7.2998C13.7587 7.2998 14.0562 7.3725 14.2947 7.56306C14.5438 7.76202 14.7 8.06741 14.7 8.4655V12.6695C14.7 14.2442 14.2639 15.2769 13.5188 15.9057C12.784 16.5259 11.81 16.6998 10.85 16.6998C9.89005 16.6998 8.91623 16.5259 8.18156 15.9076C7.43637 15.2804 7 14.2508 7 12.6819Z" fill="white"/>
<path fill-rule="evenodd" clip-rule="evenodd" d="M15.7998 15.5057V8.49386C15.7998 8.09525 15.9432 7.78194 16.1913 7.57405C16.43 7.37394 16.7317 7.2998 17.0066 7.2998H19.6106C20.777 7.2998 21.6379 7.68583 22.2037 8.31873C22.7638 8.94525 23.0022 9.77725 23.0022 10.6152C23.0022 11.4426 22.7595 12.2681 22.198 12.8905C21.6312 13.5189 20.7711 13.9052 19.6106 13.9052H18.2387V15.5057C18.2387 15.9059 18.0832 16.2178 17.8314 16.4234C17.5893 16.6211 17.2843 16.6998 17.0066 16.6998C16.7281 16.6998 16.427 16.6207 16.1899 16.4197C15.9443 16.2115 15.7998 15.8997 15.7998 15.5057ZM18.2387 11.7203H19.5344C19.9744 11.7203 20.1979 11.5676 20.3251 11.3887C20.466 11.1906 20.5252 10.9083 20.5252 10.6025C20.5252 10.2967 20.466 10.0144 20.3251 9.81635C20.1979 9.63742 19.9744 9.48467 19.5344 9.48467H18.2387V11.7203Z" fill="white"/>
</svg>
