<svg width="25" height="24" viewBox="0 0 25 24" fill="none" xmlns="http://www.w3.org/2000/svg">
    <path d="M20.2071 5.70711C20.5976 5.31658 20.5976 4.68342 20.2071 4.29289C19.8166 3.90237 19.1834 3.90237 18.7929 4.29289L12.5 10.5858L6.20711 4.29289C5.81658 3.90237 5.18342 3.90237 4.79289 4.29289C4.40237 4.68342 4.40237 5.31658 4.79289 5.70711L11.0858 12L4.79289 18.2929C4.40237 18.6834 4.40237 19.3166 4.79289 19.7071C5.18342 20.0976 5.81658 20.0976 6.20711 19.7071L12.5 13.4142L18.7929 19.7071C19.1834 20.0976 19.8166 20.0976 20.2071 19.7071C20.5976 19.3166 20.5976 18.6834 20.2071 18.2929L13.9142 12L20.2071 5.70711Z" fill="#1F1F1F"/>
</svg>
