<svg width="20" height="20" viewBox="0 0 20 20" fill="none" xmlns="http://www.w3.org/2000/svg">
    <path d="M12.3958 8.95833C12.3958 9.4761 11.9761 9.89583 11.4583 9.89583C10.9406 9.89583 10.5208 9.4761 10.5208 8.95833C10.5208 8.44057 10.9406 8.02083 11.4583 8.02083C11.9761 8.02083 12.3958 8.44057 12.3958 8.95833Z" fill="#1F1F1F"/>
    <path d="M6.45833 9.89583C6.9761 9.89583 7.39583 9.4761 7.39583 8.95833C7.39583 8.44057 6.9761 8.02083 6.45833 8.02083C5.94057 8.02083 5.52083 8.44057 5.52083 8.95833C5.52083 9.4761 5.94057 9.89583 6.45833 9.89583Z" fill="#1F1F1F"/>
    <path fill-rule="evenodd" clip-rule="evenodd" d="M8.95833 1.25C4.70114 1.25 1.25 4.70114 1.25 8.95833C1.25 10.1544 1.52298 11.2888 2.01056 12.3007L1.51348 14.6785C1.29831 15.7078 2.2101 16.6196 3.23937 16.4044L5.6181 15.9071C6.04506 16.1127 6.4938 16.2801 6.95976 16.4048C6.99089 16.457 7.02824 16.5065 7.07183 16.5523C8.30429 17.8484 10.0479 18.6581 11.9792 18.6581C13.1788 18.6581 14.3076 18.3454 15.2861 17.7969L16.5245 18.1063C17.5284 18.3572 18.4669 17.5118 18.322 16.4873L18.0855 14.8156C18.5116 13.9286 18.75 12.9347 18.75 11.8873C18.75 9.90542 17.8974 8.12149 16.5416 6.88441C16.4815 6.82958 16.4156 6.7852 16.346 6.75116C15.3969 3.56954 12.4485 1.25 8.95833 1.25ZM2.91667 8.95833C2.91667 5.62161 5.62161 2.91667 8.95833 2.91667C12.2951 2.91667 15 5.62161 15 8.95833C15 12.2951 12.2951 15 8.95833 15C7.93274 15 6.96914 14.7451 6.12498 14.296C5.9528 14.2044 5.75393 14.176 5.56302 14.2159L3.21005 14.7078L3.70177 12.3556C3.7417 12.1646 3.71333 11.9656 3.62162 11.7934C3.17188 10.9488 2.91667 9.98463 2.91667 8.95833ZM16.6246 9.76889C16.2556 13.2995 13.5035 16.121 10.0056 16.5961C10.6127 16.8509 11.2793 16.9915 11.9792 16.9915C12.9845 16.9915 13.9196 16.7017 14.7085 16.2013C14.9012 16.0792 15.1355 16.0413 15.3569 16.0966L16.6284 16.4144L16.3987 14.79C16.374 14.6154 16.4053 14.4374 16.4882 14.2817C16.8678 13.5685 17.0833 12.7543 17.0833 11.8873C17.0833 11.1314 16.9193 10.4142 16.6246 9.76889Z" fill="#1F1F1F"/>
</svg>
