<svg width="20" height="20" viewBox="0 0 20 20" fill="none" xmlns="http://www.w3.org/2000/svg">
    <path d="M10 15.4167C10.113 15.4167 10.2207 15.3942 10.319 15.3534L10.5838 15.178L10.5893 15.1726L14.7559 11.0059C15.0814 10.6805 15.0814 10.1528 14.7559 9.82741C14.4305 9.50197 13.9028 9.50197 13.5774 9.82741L10.8333 12.5715L10.8333 5.41667C10.8333 4.95643 10.4602 4.58333 10 4.58333C9.53976 4.58333 9.16667 4.95643 9.16667 5.41667L9.16667 12.5715L6.42259 9.82741C6.09715 9.50197 5.56951 9.50197 5.24408 9.82741C4.91864 10.1528 4.91864 10.6805 5.24408 11.0059L9.41 15.1718L9.41621 15.178C9.56656 15.3256 9.77265 15.4167 10 15.4167Z" fill="#1F1F1F"/>
    <path fill-rule="evenodd" clip-rule="evenodd" d="M1.25 10C1.25 14.8325 5.16751 18.75 10 18.75C14.8325 18.75 18.75 14.8325 18.75 10C18.75 5.16751 14.8325 1.25 10 1.25C5.16751 1.25 1.25 5.16751 1.25 10ZM2.91667 10C2.91667 13.912 6.08798 17.0833 10 17.0833C13.912 17.0833 17.0833 13.912 17.0833 10C17.0833 6.08798 13.912 2.91667 10 2.91667C6.08798 2.91667 2.91667 6.08798 2.91667 10Z" fill="#1F1F1F"/>
</svg>
