<svg width="20" height="20" viewBox="0 0 20 20" fill="none" xmlns="http://www.w3.org/2000/svg">
    <path fill-rule="evenodd" clip-rule="evenodd" d="M6.06251 5.04171C5.71733 5.04171 5.43751 5.32153 5.43751 5.66671V9.83337C5.43751 10.1786 5.71733 10.4584 6.06251 10.4584C6.40769 10.4584 6.68751 10.1786 6.68751 9.83337V8.54171H7.27084C8.23734 8.54171 9.02085 7.75821 9.02085 6.79171C9.02085 5.82521 8.23734 5.04171 7.27084 5.04171H6.06251ZM6.68751 6.29171V7.29171H7.27084C7.54699 7.29171 7.77084 7.06785 7.77084 6.79171C7.77084 6.51557 7.54699 6.29171 7.27084 6.29171H6.68751Z" fill="#1F1F1F"/>
    <path fill-rule="evenodd" clip-rule="evenodd" d="M5.85926 1.57416C6.56374 1.16886 7.4366 1.16869 8.14105 1.57431L8.14271 1.57527L11.5828 3.56659C12.2964 3.97498 12.7278 4.73636 12.7278 5.54837V7.5138C12.859 7.50465 12.9915 7.5 13.125 7.5C16.2316 7.5 18.75 10.0184 18.75 13.125C18.75 16.2316 16.2316 18.75 13.125 18.75C10.2297 18.75 7.84538 16.5626 7.53437 13.7502C7.36039 13.7922 7.18176 13.8135 7.00207 13.8135C6.60196 13.8135 6.21094 13.7082 5.86185 13.509L5.85733 13.5064L2.4173 11.5151C1.70367 11.1067 1.27222 10.3453 1.27222 9.53329V5.54837C1.27222 4.7325 1.71061 3.97367 2.41615 3.56724L2.41723 3.56662L5.85926 1.57416ZM9.1724 12.9103C9.1686 12.9814 9.16668 13.053 9.16668 13.125C9.16668 15.3111 10.9389 17.0833 13.125 17.0833C15.3111 17.0833 17.0833 15.3111 17.0833 13.125C17.0833 10.9389 15.3111 9.16667 13.125 9.16667C12.991 9.16667 12.8585 9.17333 12.7278 9.18634V9.53329C12.7278 9.92058 12.629 10.295 12.4498 10.625H14.1667C14.5119 10.625 14.7917 10.9048 14.7917 11.25C14.7917 11.5952 14.5119 11.875 14.1667 11.875H12.7083V12.8125H13.5417C13.8869 12.8125 14.1667 13.0923 14.1667 13.4375C14.1667 13.7827 13.8869 14.0625 13.5417 14.0625H12.7083V15.4167C12.7083 15.7618 12.4285 16.0417 12.0833 16.0417C11.7382 16.0417 11.4583 15.7618 11.4583 15.4167V11.5871L9.1724 12.9103ZM10.7555 5.01345C10.9417 5.1203 11.0612 5.32466 11.0612 5.54837V9.53329C11.0612 9.75417 10.9401 9.96197 10.7517 10.0704L10.7498 10.0715L7.30651 12.0647C7.21295 12.119 7.10852 12.1468 7.00207 12.1468C6.89736 12.1468 6.79103 12.1199 6.68963 12.0624L3.25028 10.0715L3.24577 10.0689C3.05884 9.96225 2.93888 9.75748 2.93888 9.53329V5.54837C2.93888 5.32748 3.05992 5.11968 3.24836 5.01127L6.69039 3.01881L6.69114 3.01837C6.88094 2.90954 7.11968 2.90973 7.30875 3.01828L10.7498 5.01016L10.7555 5.01345Z" fill="#1F1F1F"/>
</svg>
