<svg width="20" height="20" viewBox="0 0 20 20" fill="none" xmlns="http://www.w3.org/2000/svg">
    <path d="M13.2287 8.75002C13.2287 9.32532 12.7623 9.79169 12.187 9.79169C11.6117 9.79169 11.1453 9.32532 11.1453 8.75002C11.1453 8.17472 11.6117 7.70835 12.187 7.70835C12.7623 7.70835 13.2287 8.17472 13.2287 8.75002Z" fill="#1F1F1F"/>
    <path d="M14.0624 12.2917C14.6377 12.2917 15.1041 11.8253 15.1041 11.25C15.1041 10.6747 14.6377 10.2084 14.0624 10.2084C13.4871 10.2084 13.0208 10.6747 13.0208 11.25C13.0208 11.8253 13.4871 12.2917 14.0624 12.2917Z" fill="#1F1F1F"/>
    <path d="M4.16658 10C4.16658 9.53978 4.53968 9.16669 4.99992 9.16669H6.04158V8.12502C6.04158 7.66478 6.41468 7.29169 6.87492 7.29169C7.33516 7.29169 7.70825 7.66478 7.70825 8.12502V9.16669H8.74992C9.21015 9.16669 9.58325 9.53978 9.58325 10C9.58325 10.4603 9.21015 10.8334 8.74992 10.8334H7.70825V11.875C7.70825 12.3353 7.33516 12.7084 6.87492 12.7084C6.41468 12.7084 6.04158 12.3353 6.04158 11.875V10.8334H4.99992C4.53968 10.8334 4.16658 10.4603 4.16658 10Z" fill="#1F1F1F"/>
    <path fill-rule="evenodd" clip-rule="evenodd" d="M1.45825 9.58335C1.45825 5.90146 4.44302 2.91669 8.12492 2.91669H11.8749C15.5568 2.91669 18.5416 5.90146 18.5416 9.58335V10.4167C18.5416 14.0986 15.5568 17.0834 11.8749 17.0834H8.12492C4.44302 17.0834 1.45825 14.0986 1.45825 10.4167V9.58335ZM8.12492 4.58335C5.36349 4.58335 3.12492 6.82193 3.12492 9.58335V10.4167C3.12492 13.1781 5.36349 15.4167 8.12492 15.4167H11.8749C14.6363 15.4167 16.8749 13.1781 16.8749 10.4167V9.58335C16.8749 6.82193 14.6363 4.58335 11.8749 4.58335H8.12492Z" fill="#1F1F1F"/>
</svg>
