<svg width="20" height="20" viewBox="0 0 20 20" fill="none" xmlns="http://www.w3.org/2000/svg">
    <path fill-rule="evenodd" clip-rule="evenodd" d="M6.24996 6.25C6.24996 4.17893 7.92889 2.5 9.99996 2.5C12.071 2.5 13.75 4.17893 13.75 6.25C13.75 7.55017 13.0883 8.6958 12.0833 9.36852V12.5H12.5V12.0833C12.5 11.6231 12.8731 11.25 13.3333 11.25C13.7935 11.25 14.1666 11.6231 14.1666 12.0833V12.5H14.3462C15.772 12.5 16.9888 13.5308 17.2232 14.9372L17.3269 15.5593C17.4962 16.5752 16.7128 17.5 15.6829 17.5H4.31698C3.28708 17.5 2.50368 16.5752 2.67299 15.5593L2.77669 14.9372C3.01108 13.5308 4.22789 12.5 5.65367 12.5H7.91663V9.36852C6.91164 8.6958 6.24996 7.55017 6.24996 6.25ZM9.99996 4.16667C8.84937 4.16667 7.91663 5.09941 7.91663 6.25C7.91663 7.40059 8.84937 8.33333 9.99996 8.33333C11.1506 8.33333 12.0833 7.40059 12.0833 6.25C12.0833 5.09941 11.1506 4.16667 9.99996 4.16667ZM5.65367 14.1667C5.04262 14.1667 4.52113 14.6084 4.42068 15.2112L4.31698 15.8333H15.6829L15.5792 15.2112C15.4787 14.6084 14.9572 14.1667 14.3462 14.1667H5.65367ZM10.4166 12.5V9.97711C10.2798 9.99223 10.1408 10 9.99996 10C9.85912 10 9.7201 9.99224 9.58329 9.97711V12.5H10.4166Z" fill="#1F1F1F"/>
</svg>
