<svg width="20" height="20" viewBox="0 0 20 20" fill="none" xmlns="http://www.w3.org/2000/svg">
    <path fill-rule="evenodd" clip-rule="evenodd" d="M14.7916 7.77044C15.1374 8.73198 15.8715 10.6671 16.2234 11.5685C16.278 11.7067 16.2476 11.7668 16.1445 11.7849C15.9625 11.8209 15.6409 11.8329 15.4711 11.8089C15.3376 11.7909 15.283 11.7548 15.2344 11.6166C15.192 11.4844 15.1252 11.2861 15.0464 11.0577L13.5539 11.0637L13.3355 11.6707C13.2991 11.7668 13.2505 11.8029 13.1353 11.8149C12.9411 11.8329 12.6681 11.8209 12.4922 11.7849C12.3587 11.7548 12.3041 11.6947 12.3587 11.5625C12.7288 10.649 13.4811 8.73799 13.7844 7.91467L13.748 7.82453C13.6874 7.6803 13.7298 7.60818 13.8694 7.58415C14.0453 7.5541 14.3669 7.5541 14.5367 7.57814C14.6763 7.59617 14.743 7.63823 14.7916 7.77044ZM14.3243 8.94233C14.1623 9.37562 14.0046 9.81011 13.8511 10.2464H14.7672L14.3243 8.94233Z" fill="#1F1F1F"/>
    <path d="M11.8858 10.9255C11.8858 11.3101 11.6796 11.4964 11.3216 11.4964C10.9637 11.4964 10.7574 11.3101 10.7574 10.9255C10.7574 10.5469 10.9637 10.3606 11.3216 10.3606C11.6796 10.3606 11.8858 10.5469 11.8858 10.9255Z" fill="#1F1F1F"/>
    <path d="M11.8858 8.35334C11.8858 8.73195 11.6796 8.91825 11.3216 8.91825C10.9637 8.91825 10.7574 8.73195 10.7574 8.35334C10.7574 7.96873 10.9637 7.78243 11.3216 7.78243C11.6796 7.78243 11.8858 7.96873 11.8858 8.35334Z" fill="#1F1F1F"/>
    <path d="M9.9932 10.9495C10.1267 10.9435 10.1934 10.9916 10.2177 11.0938C10.2601 11.244 10.2723 11.4423 10.2723 11.5866C10.2723 11.7007 10.2298 11.7789 10.1024 11.7849C9.61705 11.8029 8.5432 11.8209 7.9547 11.8209C7.8637 11.8209 7.79696 11.8089 7.73629 11.7728C7.61495 11.7067 7.42081 11.5204 7.35407 11.4063C7.31767 11.3462 7.29947 11.2921 7.29947 11.214V10.2164C7.30554 9.42309 7.29947 8.37742 7.28127 7.72237C7.28127 7.62621 7.31767 7.58415 7.42081 7.57213C7.55428 7.56011 7.79696 7.56011 7.98504 7.57213C8.54783 7.58374 9.47317 7.5673 9.84146 7.56076L9.87793 7.56011C10.0175 7.56011 10.0721 7.59016 10.1024 7.70434C10.1388 7.84857 10.157 8.10698 10.1388 8.25722C10.1267 8.35939 10.0599 8.41347 9.91433 8.40746C9.59278 8.40145 8.87688 8.40746 8.31265 8.41347C8.31265 8.5405 8.31119 8.67189 8.3097 8.80549C8.30815 8.94367 8.30659 9.08422 8.30659 9.22477C8.44743 9.22298 8.6017 9.22119 8.75598 9.21941C9.12006 9.21519 9.48415 9.21096 9.67165 9.20674C9.81119 9.20674 9.87793 9.23679 9.90826 9.35698C9.94466 9.50121 9.96287 9.74761 9.94466 9.89785C9.93253 10 9.86579 10.0421 9.72019 10.0421C9.42897 10.0361 8.79194 10.0421 8.30659 10.0541V10.2164L8.31265 10.9796C8.6706 10.9856 9.60491 10.9676 9.9932 10.9495Z" fill="#1F1F1F"/>
    <path d="M3.94413 11.633C3.93746 11.6313 3.93158 11.6298 3.92652 11.6286C3.79305 11.5985 3.74451 11.5385 3.75058 11.4183C3.75665 11.274 3.80518 11.0637 3.85979 10.9315C3.90226 10.8293 3.96293 10.7993 4.0964 10.8233C4.39975 10.8774 4.95184 10.9615 5.25519 10.9615C5.67987 10.9615 5.89828 10.8293 5.89828 10.601C5.89828 10.3485 5.76481 10.2223 5.03071 10.006C4.12067 9.73557 3.78092 9.36297 3.78092 8.76201C3.78092 7.89061 4.47862 7.49999 5.57067 7.49999C5.81335 7.49999 6.28657 7.55408 6.48678 7.60215C6.60812 7.6322 6.65059 7.68629 6.66272 7.80047C6.67486 7.92667 6.66272 8.18509 6.62632 8.3173C6.60205 8.41345 6.53532 8.4435 6.40184 8.42547C6.12883 8.38941 5.88008 8.36537 5.66774 8.36537C5.00038 8.36537 4.7941 8.46754 4.7941 8.70792C4.7941 8.86417 4.89724 8.98436 5.50393 9.17667C6.58385 9.51321 6.91753 9.87379 6.91753 10.601C6.91753 11.4663 6.21983 11.875 5.18845 11.875C4.91906 11.875 4.12957 11.679 3.94413 11.633Z" fill="#1F1F1F"/>
    <path fill-rule="evenodd" clip-rule="evenodd" d="M0.416748 8.95832C0.416748 5.27642 3.40152 2.29166 7.08341 2.29166H12.9167C16.5986 2.29166 19.5834 5.27642 19.5834 8.95832V10.625C19.5834 13.7039 17.4963 16.2952 14.6597 17.0615V19.0478L11.0234 17.2917H7.08341C3.40152 17.2917 0.416748 14.3069 0.416748 10.625V8.95832ZM7.08341 3.95832C4.32199 3.95832 2.08341 6.1969 2.08341 8.95832V10.625C2.08341 13.3864 4.32199 15.625 7.08341 15.625H12.9167C15.6782 15.625 17.9167 13.3864 17.9167 10.625V8.95832C17.9167 6.1969 15.6782 3.95832 12.9167 3.95832H7.08341Z" fill="#1F1F1F"/>
</svg>
