<svg width="20" height="20" viewBox="0 0 20 20" fill="none" xmlns="http://www.w3.org/2000/svg">
    <path d="M10.9302 12.4152C10.9302 12.9307 10.5013 13.35 9.97391 13.35C9.44654 13.35 9.01761 12.9307 9.01761 12.4152C9.01761 11.8997 9.44654 11.4804 9.97391 11.4804C10.5013 11.4804 10.9302 11.8997 10.9302 12.4152Z" fill="#1F1F1F"/>
    <path fill-rule="evenodd" clip-rule="evenodd" d="M15.5535 7.64167C15.1668 7.17085 14.6324 6.90966 14.0452 6.90623C13.6761 6.90623 13.3245 7.00933 13.0151 7.20521L13.0221 7.05744V6.98183H12.9483L10.5786 6.97496H10.5013L10.5048 7.05056L10.7017 11.0474C11.2044 11.3086 11.5525 11.8206 11.5525 12.4152C11.5525 12.8035 11.4013 13.1541 11.1587 13.4256H12.653V13.3568L12.7725 11.3911C13.1241 11.6935 13.5565 11.8584 14.0206 11.8584C14.6042 11.8584 15.1421 11.6007 15.5324 11.1333C15.8945 10.6969 16.1055 10.1126 16.1231 9.47684V9.38405C16.1231 8.71391 15.9191 8.09187 15.5429 7.63136L15.5535 7.64167ZM13.437 10.171C13.0467 10.171 12.7162 9.82395 12.7198 9.38405C12.7198 8.94072 13.0538 8.6005 13.444 8.6005C13.8343 8.6005 14.1648 8.9476 14.1612 9.38749C14.1612 9.83082 13.8272 10.171 13.437 10.171Z" fill="#1F1F1F"/>
    <path fill-rule="evenodd" clip-rule="evenodd" d="M6.26091 7.34793C6.50398 7.08427 6.81655 6.89449 7.17224 6.80135C7.73515 6.65417 8.32303 6.77051 8.82037 7.11798C9.3072 7.46626 9.66916 8.01386 9.84506 8.65866L9.8666 8.75007C10.0155 9.36595 9.97015 9.97968 9.73691 10.4942C9.48542 11.0447 9.03342 11.428 8.4705 11.5752C8.02508 11.6926 7.56249 11.6423 7.144 11.4404L7.53002 13.2376L7.54611 13.3053L7.48063 13.3242L5.8226 13.753L5.75712 13.7719L5.73431 13.7081L3.80324 7.83198L3.77986 7.7614L3.85234 7.74198L6.13905 7.15055L6.21153 7.13113L6.22818 7.20568L6.26091 7.34793ZM6.54707 9.52175C6.66279 9.94714 7.07467 10.1978 7.44761 10.0999C7.82055 10.002 8.05136 9.58755 7.93563 9.16216C7.81991 8.73677 7.40803 8.48608 7.0351 8.58402C6.66216 8.68196 6.43135 9.09636 6.54707 9.52175Z" fill="#1F1F1F"/>
    <path fill-rule="evenodd" clip-rule="evenodd" d="M9.99967 1.66634C5.39712 1.66634 1.66602 5.39744 1.66602 9.99999C1.66602 14.6025 5.39712 18.3337 9.99967 18.3337C14.6022 18.3337 18.3333 14.6025 18.3333 9.99999C18.3333 5.39744 14.6022 1.66634 9.99967 1.66634ZM3.10838 9.99999C3.10838 6.19404 6.19372 3.1087 9.99967 3.1087C13.8056 3.1087 16.891 6.19404 16.891 9.99999C16.891 13.806 13.8056 16.8913 9.99967 16.8913C6.19372 16.8913 3.10838 13.806 3.10838 9.99999Z" fill="#1F1F1F"/>
</svg>
