<svg width="24" height="24" viewBox="0 0 24 24" fill="none" xmlns="http://www.w3.org/2000/svg">
    <path fill-rule="evenodd" clip-rule="evenodd" d="M18 17H6V9.5C6 6.18629 8.68629 3.5 12 3.5C15.3137 3.5 18 6.18629 18 9.5V17ZM4 19C3.72386 19 3.5 18.7761 3.5 18.5C3.5 18.3918 3.53509 18.2865 3.6 18.2L4 17.6667V9.5C4 5.08172 7.58172 1.5 12 1.5C16.4183 1.5 20 5.08172 20 9.5V17.6667L20.4 18.2C20.5657 18.4209 20.5209 18.7343 20.3 18.9C20.2135 18.9649 20.1082 19 20 19H4ZM13.5002 22C13.8434 21.7422 14.118 21.3981 14.292 21C14.4258 20.6938 14.5 20.3556 14.5 20H9.5C9.5 20.3556 9.57423 20.6938 9.70803 21C9.88198 21.3981 10.1566 21.7422 10.4998 22C10.9176 22.314 11.4371 22.5 12 22.5C12.5629 22.5 13.0824 22.314 13.5002 22Z" fill="#1F1F1F"/>
</svg>
