<svg width="24" height="24" viewBox="0 0 24 24" fill="none" xmlns="http://www.w3.org/2000/svg">
    <path fill-rule="evenodd" clip-rule="evenodd" d="M12 13C14.2091 13 16 11.2091 16 9C16 6.79086 14.2091 5 12 5C9.79086 5 8 6.79086 8 9C8 11.2091 9.79086 13 12 13ZM12 11C13.1046 11 14 10.1046 14 9C14 7.89543 13.1046 7 12 7C10.8954 7 10 7.89543 10 9C10 10.1046 10.8954 11 12 11Z" fill="#1F1F1F"/>
    <path fill-rule="evenodd" clip-rule="evenodd" d="M22 12C22 17.5228 17.5228 22 12 22C6.47715 22 2 17.5228 2 12C2 6.47715 6.47715 2 12 2C17.5228 2 22 6.47715 22 12ZM16.6388 18.5185C15.3304 19.4513 13.7293 20 12 20C10.2726 20 8.673 19.4525 7.36538 18.5215C8.3236 17.0126 10.0379 16 12.003 16C13.9669 16 15.6802 17.0112 16.6388 18.5185ZM18.1255 17.1459C16.7776 15.2409 14.5342 14 12.003 14C9.4702 14 7.22536 15.2426 5.87777 17.1499C4.706 15.7583 4 13.9616 4 12C4 7.58172 7.58172 4 12 4C16.4183 4 20 7.58172 20 12C20 13.9598 19.2953 15.7549 18.1255 17.1459Z" fill="#1F1F1F"/>
</svg>
