<svg width="24" height="24" viewBox="0 0 24 24" fill="none" xmlns="http://www.w3.org/2000/svg">
    <path d="M18.5294 17.7302V18H5.47059V17.7302V9.61905C5.47059 5.95225 8.40502 3 12 3C15.595 3 18.5294 5.95225 18.5294 9.61905V17.7302ZM4.89735 18.8338L4.89749 18.8336L4.89735 18.8338ZM12.7291 21.1636L12.7291 21.1636C12.5186 21.3015 12.2695 21.381 12 21.381C11.7304 21.381 11.4814 21.3015 11.2709 21.1636L10.7228 22L11.2708 21.1636C11.238 21.1421 11.2061 21.1191 11.1752 21.0948L10.5568 21.8806L11.1752 21.0948C11.1375 21.0651 11.1014 21.0335 11.067 21H12.933C12.8986 21.0335 12.8624 21.0651 12.8248 21.0948C12.7938 21.1191 12.7619 21.1421 12.7291 21.1636Z" fill="#1F1F1F" stroke="#1F1F1F" stroke-width="2"/>
</svg>
