<svg width="24" height="24" viewBox="0 0 24 24" fill="none" xmlns="http://www.w3.org/2000/svg">
    <path fill-rule="evenodd" clip-rule="evenodd" d="M22 12C22 17.5228 17.5228 22 12 22C6.47715 22 2 17.5228 2 12C2 6.47715 6.47715 2 12 2C17.5228 2 22 6.47715 22 12ZM12 13C14.2091 13 16 11.2091 16 9C16 6.79086 14.2091 5 12 5C9.79086 5 8 6.79086 8 9C8 11.2091 9.79086 13 12 13ZM6.58426 17.8882C7.7334 16.1501 9.73105 15 12.0031 15C14.2735 15 16.27 16.1486 17.4195 17.8847C15.9943 19.1979 14.0908 20 12 20C9.91104 20 8.00908 19.1993 6.58426 17.8882Z" fill="#1F1F1F"/>
</svg>
